<?xml version="1.0" encoding="UTF-8"?>
<svg id="Layer_2" data-name="Layer 2" xmlns="http://www.w3.org/2000/svg" viewBox="0 0 595.33 201.38">
  <defs>
    <style>
      .cls-1 {
        fill: #ff4d4d;
      }
    </style>
  </defs>
  <g id="Layer_1-2" data-name="Layer 1">
    <g>
      <path class="cls-1" d="M134.6,149.02c-6.91-3.03-12.36-7.18-16.36-12.45-4-5.27-6.24-11.18-6.73-17.73h30.73c.36,3.52,2,6.36,4.91,8.54,2.91,2.18,6.48,3.27,10.73,3.27,3.88,0,6.88-.76,9-2.27,2.12-1.51,3.18-3.48,3.18-5.91,0-2.91-1.52-5.06-4.55-6.45-3.03-1.39-7.94-2.94-14.73-4.64-7.27-1.7-13.33-3.48-18.18-5.36-4.85-1.88-9.03-4.85-12.54-8.91-3.52-4.06-5.27-9.54-5.27-16.45,0-5.82,1.6-11.12,4.82-15.91,3.21-4.79,7.94-8.57,14.18-11.36,6.24-2.79,13.66-4.18,22.27-4.18,12.73,0,22.75,3.15,30.09,9.45,7.33,6.3,11.55,14.67,12.64,25.09h-28.73c-.49-3.51-2.03-6.3-4.64-8.36-2.61-2.06-6.03-3.09-10.27-3.09-3.64,0-6.43.7-8.36,2.09-1.94,1.4-2.91,3.3-2.91,5.73,0,2.91,1.55,5.09,4.64,6.55s7.91,2.91,14.45,4.36c7.51,1.94,13.64,3.85,18.36,5.73,4.73,1.88,8.88,4.91,12.45,9.09,3.57,4.18,5.42,9.79,5.55,16.82,0,5.94-1.67,11.24-5,15.91-3.33,4.67-8.12,8.33-14.36,11-6.24,2.66-13.49,4-21.73,4-8.85,0-16.73-1.51-23.64-4.54Z"/>
      <path class="cls-1" d="M306.65,50.66v101.45h-31.09v-13.82c-3.15,4.49-7.43,8.09-12.82,10.82-5.39,2.73-11.36,4.09-17.91,4.09-7.76,0-14.61-1.73-20.54-5.18-5.94-3.45-10.54-8.45-13.82-15-3.27-6.54-4.91-14.24-4.91-23.09v-59.27h30.91v55.09c0,6.79,1.76,12.06,5.27,15.82,3.51,3.76,8.24,5.64,14.18,5.64s10.85-1.88,14.36-5.64c3.51-3.75,5.27-9.03,5.27-15.82v-55.09h31.09Z"/>
      <path class="cls-1" d="M335.77,149.02c-6.91-3.03-12.36-7.18-16.36-12.45s-6.24-11.18-6.73-17.73h30.73c.36,3.52,2,6.36,4.91,8.54s6.48,3.27,10.73,3.27c3.88,0,6.88-.76,9-2.27,2.12-1.51,3.18-3.48,3.18-5.91,0-2.91-1.52-5.06-4.54-6.45-3.03-1.39-7.94-2.94-14.73-4.64-7.27-1.7-13.33-3.48-18.18-5.36-4.85-1.88-9.03-4.85-12.54-8.91-3.52-4.06-5.27-9.54-5.27-16.45,0-5.82,1.6-11.12,4.82-15.91,3.21-4.79,7.94-8.57,14.18-11.36,6.24-2.79,13.67-4.18,22.27-4.18,12.73,0,22.75,3.15,30.09,9.45,7.33,6.3,11.54,14.67,12.64,25.09h-28.73c-.49-3.51-2.03-6.3-4.64-8.36-2.61-2.06-6.03-3.09-10.27-3.09-3.64,0-6.43.7-8.36,2.09-1.94,1.4-2.91,3.3-2.91,5.73,0,2.91,1.55,5.09,4.64,6.55s7.91,2.91,14.45,4.36c7.51,1.94,13.64,3.85,18.36,5.73,4.73,1.88,8.88,4.91,12.45,9.09,3.57,4.18,5.42,9.79,5.55,16.82,0,5.94-1.67,11.24-5,15.91-3.33,4.67-8.12,8.33-14.36,11-6.24,2.66-13.49,4-21.73,4-8.85,0-16.73-1.51-23.64-4.54Z"/>
      <path class="cls-1" d="M523.55,28.82c-3.45-3.21-5.18-7.18-5.18-11.91s1.73-8.88,5.18-12.09c3.45-3.21,7.91-4.82,13.36-4.82s9.73,1.61,13.18,4.82c3.45,3.21,5.18,7.24,5.18,12.09s-1.73,8.7-5.18,11.91c-3.45,3.21-7.85,4.82-13.18,4.82s-9.91-1.61-13.36-4.82Z"/>
      <rect class="cls-1" x="521.28" y="50.66" width="31.09" height="101.45"/>
      <path class="cls-1" d="M595.33,6.48v145.63h-31.09V6.48h31.09Z"/>
      <path class="cls-1" d="M54.32,173.51c7.13,0,12.18-3.16,15.14-9.49s4.44-16.63,4.44-30.9c-2.96,4.17-7,7.41-12.11,9.69-5.12,2.29-10.84,3.43-17.16,3.43-8.62,0-16.29-1.78-23.02-5.35-6.73-3.57-12.02-8.89-15.85-15.95-3.84-7.07-5.75-15.65-5.75-25.75s2.05-18.64,6.16-26.05c4.1-7.4,9.96-13.12,17.57-17.16,7.6-4.04,16.59-6.06,26.96-6.06,19.92,0,33.86,6.2,41.8,18.58,7.94,12.39,11.91,30.63,11.91,54.72,0,17.5-1.58,31.94-4.74,43.32-3.17,11.38-8.48,20.03-15.95,25.95-7.47,5.93-17.67,8.89-30.59,8.89-10.23,0-18.95-2.02-26.15-6.06-7.2-4.04-12.72-9.35-16.56-15.95-3.84-6.6-6.03-13.86-6.56-21.81h31.91c2.02,10.64,8.21,15.95,18.58,15.95ZM66.03,113.84c3.36-3.43,5.05-8.11,5.05-14.03,0-6.46-1.75-11.44-5.25-14.94-3.5-3.5-8.21-5.25-14.14-5.25s-10.6,1.79-14.03,5.35c-3.43,3.57-5.15,8.45-5.15,14.64,0,5.79,1.72,10.47,5.15,14.03,3.43,3.57,8.38,5.35,14.84,5.35,5.66,0,10.16-1.72,13.53-5.15Z"/>
      <path class="cls-1" d="M463.01,173.51c7.13,0,12.18-3.16,15.14-9.49,2.96-6.33,4.44-16.63,4.44-30.9-2.96,4.17-7,7.41-12.11,9.69-5.12,2.29-10.84,3.43-17.16,3.43-8.62,0-16.29-1.78-23.02-5.35-6.73-3.57-12.02-8.89-15.85-15.95-3.84-7.07-5.75-15.65-5.75-25.75s2.05-18.64,6.16-26.05c4.1-7.4,9.96-13.12,17.57-17.16,7.6-4.04,16.59-6.06,26.96-6.06,19.92,0,33.86,6.2,41.8,18.58,7.94,12.39,11.91,30.63,11.91,54.72,0,17.5-1.58,31.94-4.74,43.32-3.17,11.38-8.48,20.03-15.95,25.95-7.47,5.93-17.67,8.89-30.59,8.89-10.23,0-18.95-2.02-26.15-6.06-7.2-4.04-12.72-9.35-16.56-15.95-3.84-6.6-6.03-13.86-6.56-21.81h31.91c2.02,10.64,8.21,15.95,18.58,15.95ZM474.72,113.84c3.36-3.43,5.05-8.11,5.05-14.03,0-6.46-1.75-11.44-5.25-14.94-3.5-3.5-8.21-5.25-14.14-5.25s-10.6,1.79-14.03,5.35c-3.43,3.57-5.15,8.45-5.15,14.64,0,5.79,1.72,10.47,5.15,14.03,3.43,3.57,8.38,5.35,14.84,5.35,5.66,0,10.16-1.72,13.53-5.15Z"/>
    </g>
  </g>
</svg>