<?xml version="1.0" encoding="UTF-8"?>
<svg id="Layer_2" data-name="Layer 2" xmlns="http://www.w3.org/2000/svg" viewBox="0 0 293.58 293.58">
  <defs>
    <style>
      .cls-1 {
        fill: #ff4d4d;
      }
    </style>
  </defs>
  <g id="Layer_1-2" data-name="Layer 1">
    <g>
      <path class="cls-1" d="M105.16,125.71c-5.92,0-10.6,1.79-14.03,5.35-3.43,3.57-5.15,8.45-5.15,14.64,0,5.79,1.72,10.47,5.15,14.03,3.43,3.57,8.38,5.35,14.84,5.35,5.66,0,10.16-1.72,13.53-5.15,3.36-3.43,5.05-8.11,5.05-14.03,0-6.46-1.75-11.44-5.25-14.94-3.5-3.5-8.21-5.25-14.14-5.25Z"/>
      <path class="cls-1" d="M146.79,0C65.72,0,0,65.72,0,146.79s65.72,146.79,146.79,146.79,146.79-65.72,146.79-146.79S227.86,0,146.79,0ZM153.12,212.64c-3.17,11.38-8.48,20.03-15.95,25.95-7.47,5.93-17.67,8.89-30.59,8.89-10.23,0-18.95-2.02-26.15-6.06-7.2-4.04-12.72-9.35-16.56-15.95-3.84-6.6-6.03-13.86-6.56-21.81h31.91c2.02,10.64,8.21,15.95,18.58,15.95,7.13,0,12.18-3.16,15.14-9.49,2.96-6.33,4.44-16.63,4.44-30.9-2.96,4.17-7,7.41-12.11,9.69-5.12,2.29-10.84,3.43-17.16,3.43-8.62,0-16.29-1.78-23.02-5.35-6.73-3.57-12.02-8.89-15.85-15.95-3.84-7.07-5.75-15.65-5.75-25.75s2.05-18.64,6.16-26.05c4.1-7.4,9.96-13.12,17.57-17.16,7.6-4.04,16.59-6.06,26.96-6.06,19.92,0,33.86,6.2,41.8,18.58,7.94,12.39,11.91,30.63,11.91,54.72,0,17.5-1.58,31.94-4.74,43.32ZM197.15,198.21h-31.09v-101.45h31.09v101.45ZM194.87,74.92c-3.45,3.21-7.85,4.82-13.18,4.82s-9.91-1.61-13.36-4.82c-3.45-3.21-5.18-7.18-5.18-11.91s1.73-8.88,5.18-12.09c3.45-3.21,7.91-4.82,13.36-4.82s9.73,1.61,13.18,4.82c3.45,3.21,5.18,7.24,5.18,12.09s-1.73,8.7-5.18,11.91ZM240.11,198.21h-31.09V52.57h31.09v145.63Z"/>
    </g>
  </g>
</svg>